<svg aria-hidden="true" style="position: absolute; width: 0; height: 0; overflow: hidden;" version="1.1" xmlns="http://www.w3.org/2000/svg" xmlns:xlink="http://www.w3.org/1999/xlink">
<defs>
<symbol id="icon-facebook" viewBox="0 0 32 32">
<path d="M19 6h5v-6h-5c-3.86 0-7 3.14-7 7v3h-4v6h4v16h6v-16h5l1-6h-6v-3c0-0.542 0.458-1 1-1z"></path>
</symbol>
<symbol id="icon-twitter" viewBox="0 0 32 32">
<path d="M32 7.075c-1.175 0.525-2.444 0.875-3.769 1.031 1.356-0.813 2.394-2.1 2.887-3.631-1.269 0.75-2.675 1.3-4.169 1.594-1.2-1.275-2.906-2.069-4.794-2.069-3.625 0-6.563 2.938-6.563 6.563 0 0.512 0.056 1.012 0.169 1.494-5.456-0.275-10.294-2.888-13.531-6.862-0.563 0.969-0.887 2.1-0.887 3.3 0 2.275 1.156 4.287 2.919 5.463-1.075-0.031-2.087-0.331-2.975-0.819 0 0.025 0 0.056 0 0.081 0 3.181 2.263 5.838 5.269 6.437-0.55 0.15-1.131 0.231-1.731 0.231-0.425 0-0.831-0.044-1.237-0.119 0.838 2.606 3.263 4.506 6.131 4.563-2.25 1.762-5.075 2.813-8.156 2.813-0.531 0-1.050-0.031-1.569-0.094 2.913 1.869 6.362 2.95 10.069 2.95 12.075 0 18.681-10.006 18.681-18.681 0-0.287-0.006-0.569-0.019-0.85 1.281-0.919 2.394-2.075 3.275-3.394z"></path>
</symbol>
<symbol id="icon-vine" viewBox="0 0 32 32">
<path d="M30.025 15.906c-0.825 0.188-1.619 0.275-2.337 0.275-4.038 0-7.144-2.819-7.144-7.725 0-2.406 0.931-3.65 2.244-3.65 1.25 0 2.081 1.119 2.081 3.394 0 1.294-0.344 2.713-0.6 3.55 0 0 1.244 2.169 4.644 1.506 0.725-1.606 1.113-3.681 1.113-5.5 0-4.9-2.5-7.756-7.081-7.756-4.713 0-7.469 3.619-7.469 8.394 0 4.731 2.212 8.787 5.856 10.637-1.531 3.069-3.481 5.769-5.519 7.806-3.688-4.462-7.025-10.413-8.394-22.031h-5.444c2.519 19.35 10.012 25.512 12 26.694 1.119 0.675 2.088 0.644 3.112 0.063 1.613-0.913 6.444-5.75 9.125-11.406 1.125 0 2.475-0.131 3.819-0.438v-3.813z"></path>
</symbol>
<symbol id="icon-youtube" viewBox="0 0 32 32">
<path d="M31.681 9.6c0 0-0.313-2.206-1.275-3.175-1.219-1.275-2.581-1.281-3.206-1.356-4.475-0.325-11.194-0.325-11.194-0.325h-0.012c0 0-6.719 0-11.194 0.325-0.625 0.075-1.987 0.081-3.206 1.356-0.963 0.969-1.269 3.175-1.269 3.175s-0.319 2.588-0.319 5.181v2.425c0 2.587 0.319 5.181 0.319 5.181s0.313 2.206 1.269 3.175c1.219 1.275 2.819 1.231 3.531 1.369 2.563 0.244 10.881 0.319 10.881 0.319s6.725-0.012 11.2-0.331c0.625-0.075 1.988-0.081 3.206-1.356 0.962-0.969 1.275-3.175 1.275-3.175s0.319-2.587 0.319-5.181v-2.425c-0.006-2.588-0.325-5.181-0.325-5.181zM12.694 20.15v-8.994l8.644 4.513-8.644 4.481z"></path>
</symbol>
<symbol id="icon-logo">
<path d="M44.92 31.5c0 1.05.852 1.901 1.902 1.901h4.324c2.202 0 4.376.505 6.342 1.496a3.794 3.794 0 001.97.397 3.818 3.818 0 003.534-3.545 3.803 3.803 0 00-5.445-3.676c-2.003.967-4.178 1.525-6.402 1.525h-4.323c-1.05 0-1.902.852-1.902 1.902zM19.154 43.845a1.572 1.572 0 00-2.223 0l-2.528 2.528a11.637 11.637 0 01-4.582 2.832c-.516.17-.996.477-1.384.92a3.157 3.157 0 00.006 4.138 3.144 3.144 0 005.333-1.033c.605-1.736 1.55-3.334 2.85-4.634l2.528-2.528a1.572 1.572 0 000-2.223zM41.957 21.043a1.645 1.645 0 002.326 0l2.646-2.645a12.178 12.178 0 014.794-2.964 3.283 3.283 0 001.448-.963 3.303 3.303 0 00-.006-4.33 3.29 3.29 0 00-5.58 1.082c-.634 1.816-1.623 3.488-2.983 4.849l-2.645 2.645a1.645 1.645 0 000 2.326z" fill="#FB4C47"/><path d="M31.499 44.92c-1.05 0-1.901.851-1.901 1.901v4.325c0 2.201-.505 4.376-1.497 6.341a3.794 3.794 0 00-.396 1.97 3.818 3.818 0 003.544 3.534 3.803 3.803 0 003.677-5.444c-.967-2.003-1.526-4.178-1.526-6.402V46.82c0-1.05-.851-1.901-1.901-1.901z" fill="#FFA2A1"/><path d="M34.928 57.547c-.966-2.003-1.525-4.178-1.525-6.402v-4.324a1.901 1.901 0 00-3.803 0v4.324c0 2.224.559 4.399 1.526 6.402a3.8 3.8 0 01-1.523 4.941 3.75 3.75 0 001.649.504 3.803 3.803 0 003.677-5.445z" fill="#FB4C47"/><path d="M17.31 23.647a6.211 6.211 0 100-12.422 6.211 6.211 0 000 12.422z" fill="#FF807E"/><path d="M17.308 11.225c-.663 0-1.302.105-1.901.297a6.213 6.213 0 010 11.827 6.211 6.211 0 101.901-12.125z" fill="#FB4C47"/><path d="M31.5 51.781c11.201 0 20.282-9.08 20.282-20.281 0-11.201-9.08-20.282-20.282-20.282-11.2 0-20.281 9.08-20.281 20.282 0 11.2 9.08 20.281 20.281 20.281z" fill="#FFBFBE"/><path d="M31.502 11.218a20.5 20.5 0 00-1.902.09c10.31.959 18.38 9.632 18.38 20.192S39.91 50.733 29.6 51.692c.626.058 1.26.09 1.902.09 11.2 0 20.281-9.081 20.281-20.282s-9.08-20.282-20.282-20.282z" fill="#FFA2A2"/><path d="M39.104 28.687a4.12 4.12 0 100-8.24 4.12 4.12 0 000 8.24z" fill="#FFA2A1"/><path d="M39.106 20.447a4.1 4.1 0 00-1.9.466 4.118 4.118 0 010 7.308 4.12 4.12 0 101.901-7.774zM24.248 42.211a2.789 2.789 0 100-5.577 2.789 2.789 0 000 5.577z" fill="#FF807E"/><path d="M45.297 50.344a3.803 3.803 0 100-7.605 3.803 3.803 0 000 7.605z" fill="#FB4C47"/><path d="M45.298 42.739c-.693 0-1.342.186-1.902.51a3.8 3.8 0 010 6.585 3.803 3.803 0 101.901-7.096z" fill="#FF807E"/><path d="M18.08 31.5c0 1.05-.852 1.901-1.902 1.901h-4.324c-2.202 0-4.377.505-6.342 1.496a3.794 3.794 0 01-1.97.397 3.818 3.818 0 01-3.534-3.545 3.803 3.803 0 015.445-3.676c2.003.967 4.178 1.525 6.401 1.525h4.324c1.05 0 1.901.852 1.901 1.902z" fill="#FB4C47"/><path d="M31.499 18.08c1.05 0 1.901-.852 1.901-1.902v-4.324c0-2.202.505-4.377 1.496-6.342a3.794 3.794 0 00.397-1.97A3.818 3.818 0 0031.748.008a3.803 3.803 0 00-3.676 5.445c.967 2.003 1.526 4.178 1.526 6.401v4.324c0 1.05.85 1.901 1.9 1.901z" fill="#FFA2A1"/><path d="M35.294 3.542A3.818 3.818 0 0031.749.008a3.792 3.792 0 00-2.153.503 3.816 3.816 0 011.895 3.03c.047.712-.1 1.385-.396 1.971a14.075 14.075 0 00-1.497 6.342v4.324a1.901 1.901 0 103.803 0v-4.324c0-2.202.505-4.377 1.496-6.342a3.792 3.792 0 00.397-1.97z" fill="#FB4C47"/><path d="M59.2 27.7c-.59 0-1.15.134-1.649.375-.088.043-.177.083-.266.124a3.8 3.8 0 011.908 3.55 3.814 3.814 0 01-1.906 3.047c.069.033.137.065.205.1a3.793 3.793 0 001.97.396 3.816 3.816 0 003.531-3.543 3.8 3.8 0 00-3.792-4.05z" fill="#FF807E"/>
</symbol>
</defs>
</svg>
